# xmcd
#
# Track frame offsets: 
#        150
#        13957
#        23630
#        37465
#        49540
#        61842
#        73337
#        85785
#        96860
#        107020
#        117852
#        127915
#        138157
#        149800
#        160707
#        170607
#        180807
#        192877
#        203702
#        214220
#        223960
#        236840
#        246795
#        259490
#        274787
#
# Disc length: 3793 seconds
#
# Revision: 5
# Processed by: cddbd v1.5.2PL0 Copyright (c) Steve Scherf et al.
# Submitted via: ExactAudioCopyFreeDBPlugin 1.0
#
DISCID=7a0ecf19
DTITLE=Various Artist - The Vee-Jay Story:  40 Years of Classic Hits,
DTITLE=1953-1993 [box set]
DYEAR=1993
DGENRE=Rhythm and Blues
TTITLE0=Elmore James - 12 Year Old Boy
TTITLE1=Gene Allison - You Can Make it If You Try
TTITLE2=Elmore James - It Hurts Me Too
TTITLE3=Billy Boy Arnold - Rockin'itis
TTITLE4=Gene Allison - Have Faith
TTITLE5=The Spaniels - Stormy Weather
TTITLE6=The Impressions - For Your Precious Love
TTITLE7=Jerry Butler - Nobody But You
TTITLE8=Hank Ballard and The Midnighters - The Twist
TTITLE9=Wade Flemons - Here I Stand
TTITLE10=Priscilla Bowman and The Spaniels - A Rockin' Good Way
TTITLE11=Jimmy Witherspoon - K.C. Loving
TTITLE12=John Lee Hooker - Boogie Chillun
TTITLE13=Jimmy Reed - Take Out Some Insurance
TTITLE14=Dee Clark - Just Keep it Up
TTITLE15=Dee Clark - Hey Little Girl
TTITLE16=Rosco Gordon - No More Doggin'
TTITLE17=Jimmy Reed - Baby What You Want Me to Do
TTITLE18=Memphis Slim - The Comeback
TTITLE19=Rosco Gordon - Just a Little Bit
TTITLE20=Jimmy Reed - Big Boss Man
TTITLE21=J.B. Lenoir - Oh Babe
TTITLE22=Jerry Butler - He Will Break Your Heart
TTITLE23=John Lee Hooker - Tupelo
TTITLE24=Dee Clark - Your Friends
EXTD=
EXTT0=
EXTT1=
EXTT2=
EXTT3=
EXTT4=
EXTT5=
EXTT6=
EXTT7=
EXTT8=
EXTT9=
EXTT10=
EXTT11=
EXTT12=
EXTT13=
EXTT14=
EXTT15=
EXTT16=
EXTT17=
EXTT18=
EXTT19=
EXTT20=
EXTT21=
EXTT22=
EXTT23=
EXTT24=
PLAYORDER=
